# xmcd CD database file
#
# Track frame offsets:
#	150
#	17773
#	29400
#	43141
#	59705
#	77593
#	96804
#	109751
#	124021
#	149232
#	166767
#	176519
#	195024
#
# Disc length: 2770 seconds
#
# Revision: 0
# Processed by: cddbd v1.5.2PL0 Copyright (c) Steve Scherf et al.
# Submitted via: CDex 1.70beta2
#
DISCID=ac0ad00d
DTITLE=Docherty, Kendall - Crn. - Charlottetown, PEI - Timeless Classics
DYEAR=1900
DGENRE=Country
TTITLE0=Peaceful Easy Feeling
TTITLE1=Wear My Ring Arround Your Neck
TTITLE2=Sea of Love
TTITLE3=Love Me Tender
TTITLE4=Green Greedn Grass of Home
TTITLE5=Danny Boy
TTITLE6=Hello Mary Lou
TTITLE7=Help Me Make It Through the Night
TTITLE8=Unchained Melody
TTITLE9=For the Good Times
TTITLE10=Don't Be Cruel
TTITLE11=My Way
TTITLE12=Are You Lonesome Tonight
EXTD=
EXTT0=
EXTT1=
EXTT2=
EXTT3=
EXTT4=
EXTT5=
EXTT6=
EXTT7=
EXTT8=
EXTT9=
EXTT10=
EXTT11=
EXTT12=
PLAYORDER=
